<?xml version="1.0" encoding="UTF-8" standalone="no"?>
<!DOCTYPE svg PUBLIC "-//W3C//DTD SVG 1.1//EN" "http://www.w3.org/Graphics/SVG/1.1/DTD/svg11.dtd">
<svg width="100%" height="100%" viewBox="0 0 1037 1023" version="1.1" xmlns="http://www.w3.org/2000/svg" xmlns:xlink="http://www.w3.org/1999/xlink" xml:space="preserve" xmlns:serif="http://www.serif.com/" style="fill-rule:evenodd;clip-rule:evenodd;">
    <g transform="matrix(1,0,0,1,32.705,28.705)">
        <g id="Sahil_Profile_Picture_SVG">
            <g id="Group_2">
                <g id="bg" transform="matrix(5.55112e-17,-1,0.996675,5.53266e-17,14.9806,940.824)">
                    <circle cx="463.887" cy="463.887" r="463.887" style="fill:rgb(25,25,25);"/>
                </g>
                <g id="Path_31" transform="matrix(1,0,0,1,-1384.68,-1162.56)">
                    <path d="M1538.6,1905.41C1537.28,1911.16 1535.28,1916.74 1532.62,1922.01C1528.48,1929.96 1523.11,1937.71 1524.12,1940.84C1526.1,1946.93 1596.11,2009.05 1599.24,2008.23C1602.36,2007.4 1625.38,1943.55 1625.05,1937.79C1624.72,1932.04 1618.02,1920.28 1596.43,1913.12C1586.18,1909.72 1571.6,1907.6 1559.43,1907.04C1547.54,1906.49 1538.6,1905.41 1538.6,1905.41Z" style="fill:url(#_Linear1);fill-rule:nonzero;"/>
                </g>
                <g id="Path_32" transform="matrix(1,0,0,1,-1072.13,-1151.9)">
                    <path d="M1745.73,1937.51C1745.73,1937.51 1836.47,1920.39 1843.56,1919.72C1847.58,1919.34 1847.67,1926.58 1849.81,1937.51C1851.33,1945.29 1855.51,1956.91 1854.87,1959.35C1853.4,1964.98 1838.75,1979.46 1817.01,1994.05C1795.26,2008.64 1773.53,2023.71 1765.48,2024.55C1757.42,2025.38 1745.73,1937.51 1745.73,1937.51Z" style="fill:rgb(202,154,114);fill-rule:nonzero;"/>
                </g>
                <g id="Path_30" transform="matrix(1,0,0,1,-1385.49,-1341.21)">
                    <path d="M1628.43,2114.91C1628.23,2115.28 1631.93,2110.28 1631.13,2111.06C1628.32,2119.93 1621.45,2112.22 1613.21,2106.42C1608.61,2101.73 1603.75,2097.3 1598.66,2093.15C1596.85,2092.56 1596.32,2092.48 1593.91,2091.81C1578.38,2087.46 1569.15,2086.59 1553.32,2085.68C1535.87,2084.68 1539.36,2087.05 1538.51,2089.91C1537.66,2092.77 1534.49,2087.48 1533.01,2074.46C1530.23,2052.77 1541.32,2017.69 1550.13,1981.9C1559.25,1944.9 1568.57,1909.98 1568.57,1909.98C1568.57,1909.98 1570.34,1893.64 1593.51,1880C1616.67,1866.37 1645.52,1853.02 1658.93,1853.47C1672.35,1853.91 1705.97,1835.86 1728.96,1826.22C1751.94,1816.59 1738.36,1821.72 1750.87,1814.93C1763.38,1808.15 1762.29,1793.02 1771.92,1785.72C1781.55,1778.42 1787.32,1782.28 1789.39,1782.93C1791.46,1783.58 1782.68,1793.28 1787.33,1805.76C1791.97,1818.25 1793.38,1817.36 1808.84,1830.78C1824.29,1844.2 1849.14,1859.42 1849.14,1859.42C1849.14,1859.42 1879.92,1853.39 1901.51,1843.6C1923.09,1833.8 1935.45,1820.25 1935.45,1820.25C1935.45,1820.25 1937.64,1804.15 1933.37,1800.44C1929.11,1796.73 1944.08,1802.32 1944.08,1802.32C1944.08,1802.32 1944.78,1802.33 1950.14,1811.63C1955.51,1820.92 1960.02,1839.5 1960.02,1839.5C1960.02,1839.5 2069.24,1894.42 2080.51,1905.33C2091.77,1916.24 2105.44,1915.22 2118.95,1936.09C2132.47,1956.95 2126.62,1951.89 2138.24,1990.01C2143.83,2008.35 2145.61,2025.54 2154.95,2045.12C2164.44,2065.03 2158.42,2072.49 2161.57,2080.1C2163.05,2095.2 2162.39,2092.75 2162.54,2092.7C2160.73,2101.86 2176.66,2113.4 2169.21,2115.79C2162.61,2117.9 2155.55,2119.46 2152.57,2118.12C2145.77,2115.08 2163.59,2114.16 2145.92,2118.12C2128.26,2122.08 2140.6,2111.44 2138.24,2118.12C2135.89,2124.8 2051.14,2144.14 2049.66,2139.72C2048.19,2135.31 2055.15,2146.81 2046.78,2134.48C2039.12,2123.21 2030.59,2155.96 2028.4,2166.23C2028.37,2166.38 2028.47,2162.33 2028.4,2162.85C2027.6,2169.01 2038.04,2234.58 2038.04,2234.58C2038.04,2234.58 2013.16,2264.22 1927.84,2266.88C1842.52,2269.54 1772.62,2263.74 1697.59,2244.48C1622.56,2225.23 1620.53,2195.68 1620.53,2195.68C1620.53,2195.68 1633.91,2104.44 1628.43,2114.91Z" style="fill:rgb(30,31,39);fill-rule:nonzero;"/>
                </g>
                <g id="Path_35" transform="matrix(1,0,0,1,-1177.23,-1223.92)">
                    <path d="M1688.63,1856.9C1691.9,1847.13 1738.65,1843.02 1743.6,1849.19C1748.56,1855.36 1743.89,1900.61 1740.92,1906.79C1737.95,1912.96 1721.92,1936.72 1715.14,1937.75C1708.36,1938.78 1691.31,1912.98 1688.63,1906.79C1685.96,1900.6 1685.37,1866.67 1688.63,1856.9Z" style="fill:rgb(25,26,32);fill-rule:nonzero;"/>
                </g>
                <g id="Path_36" transform="matrix(1,0,0,1,-1183.06,-1228.08)">
                    <path d="M1692.04,1855.35C1693.92,1854.48 1708.29,1852.05 1723.1,1850.95C1735.08,1850.07 1747.57,1850.43 1750.3,1850.95C1756.07,1852.05 1755.52,1872.11 1751.94,1875.96C1748.37,1879.81 1692.59,1876.51 1689.56,1872.39C1686.54,1868.27 1688.47,1857 1692.04,1855.35Z" style="fill:rgb(23,24,29);fill-rule:nonzero;"/>
                </g>
                <g id="Path_43" transform="matrix(0.99863,0.052336,-0.052336,0.99863,576.991,250.018)">
                    <path d="M5.068,20.776C5.068,20.776 11.968,6.416 17.035,2.615C22.102,-1.186 27.312,-1.468 30.835,5.993C34.358,13.454 30.835,34.713 30.835,34.713C30.835,34.713 28.215,45.27 26.266,50.685C24.317,56.1 26.049,64.871 20.96,71.044C15.871,77.217 0,83.706 0,83.706L5.068,20.776Z" style="fill:url(#_Linear2);fill-rule:nonzero;"/>
                </g>
                <g id="Path_62" transform="matrix(1,0,0,1,459.951,547.31)">
                    <path d="M0,0L0,68.586" style="fill:none;fill-rule:nonzero;stroke:rgb(22,23,29);stroke-width:8px;"/>
                </g>
                <g id="Path_42" transform="matrix(1,0,0,1,-1261.51,-1456.79)">
                    <path d="M1646.8,1721.09C1646.8,1721.09 1639.9,1706.73 1634.83,1702.93C1629.77,1699.13 1624.56,1698.85 1621.03,1706.31C1617.51,1713.77 1621.03,1735.03 1621.03,1735.03C1621.03,1735.03 1623.65,1745.59 1625.6,1751C1627.55,1756.41 1625.82,1765.19 1630.91,1771.36C1636,1777.53 1651.86,1784.02 1651.86,1784.02L1646.8,1721.09Z" style="fill:url(#_Linear3);fill-rule:nonzero;"/>
                </g>
                <g id="Path_37" transform="matrix(1,0,0,1,-1328.74,-1238.81)">
                    <path d="M1572.35,2011.3L1603.75,1901.78L1608.37,1887.98L1608.37,1853.1C1608.37,1853.1 1609.23,1882.95 1615.93,1887.98C1622.64,1893.01 1635.2,1873.22 1635.2,1873.22L1617.76,1913.47L1617.76,1929.57L1608.37,1913.47L1572.35,2011.3Z" style="fill:rgb(27,28,35);fill-rule:nonzero;"/>
                </g>
                <g id="Path_39" transform="matrix(0.743145,-0.669131,0.669131,0.743145,585.213,720.302)">
                    <path d="M0,97.723L30.507,10.929C30.507,10.929 37.571,-0.4 39.5,0.011L35.211,9.241L38.211,12.566L62.619,14.2C62.619,14.2 46.859,13.37 39.498,16.506L31.723,23.753L39.5,22.392C38.925,22.954 32.364,24.873 31.725,26.049C30.33,28.489 36.733,30.635 36.733,30.635L43.033,33.854L30.507,30.636L1.73,95.243L12.275,97.723C12.275,97.723 11.039,103.644 8.79,101.064C6.541,98.484 5.754,97.723 5.754,97.723L0,97.723Z" style="fill:url(#_Linear4);fill-rule:nonzero;"/>
                </g>
                <g id="face_mask" transform="matrix(1,0,0,1,-1246.8,-1520.66)">
                    <path d="M1745.8,1958.72L1681.12,1952.58L1660.89,1910.66L1644.2,1875.34C1644.2,1875.34 1639.68,1869.12 1636.08,1846.69C1632.48,1824.27 1629.4,1815.36 1629.82,1785.65C1630.24,1755.93 1636.51,1750.27 1637.58,1737.02C1638.64,1723.76 1642.07,1720.12 1645.49,1713.72C1648.91,1707.31 1644.89,1690.72 1655.96,1679.08C1667.04,1667.44 1672.21,1671.17 1690.17,1667.11C1708.13,1663.05 1707.89,1657.79 1724.59,1655.99C1741.3,1654.19 1743.78,1658.32 1757.3,1660.48C1770.83,1662.63 1767.93,1661.6 1779.33,1665.61C1790.72,1669.62 1795.89,1671.38 1804.12,1679.08C1812.36,1686.78 1811.39,1684 1813.32,1692.33C1814.79,1695.82 1816.16,1704.69 1817.59,1708.37C1818.79,1711.54 1819.8,1714.79 1820.59,1718.09C1821.39,1721.38 1826.83,1733.27 1828.9,1748.09C1830.18,1758.27 1830.66,1768.54 1830.36,1778.8C1830.05,1789.06 1831.71,1797.04 1830.36,1810.95C1829.64,1819 1827.82,1826.9 1824.94,1834.44C1825.65,1843.15 1825.04,1851.92 1823.13,1860.45C1819.97,1874.27 1812.28,1889.71 1812.28,1889.71L1791.33,1918.98L1772.74,1943.6L1745.8,1958.72Z" style="fill:url(#_Linear5);fill-rule:nonzero;"/>
                </g>
                <g id="Path_33" transform="matrix(1,0,0,1,-1238.74,-1372.58)">
                    <path d="M1637.73,1830.61L1649.94,1793.04C1649.94,1793.04 1648.76,1753.98 1653.24,1759.96C1657.73,1765.95 1679.75,1791.18 1689.8,1797.8C1699.85,1804.43 1727.17,1808.45 1736.41,1805.93C1745.65,1803.41 1773.18,1787.97 1780.88,1772.79C1788.58,1757.61 1784.75,1830.61 1784.75,1830.61C1784.75,1830.61 1808.51,1842.09 1787.72,1860.87C1766.93,1879.66 1701.61,1905.77 1701.61,1905.77C1701.61,1905.77 1661.09,1866.84 1645.12,1848.05C1629.15,1829.26 1637.73,1830.61 1637.73,1830.61Z" style="fill:url(#_Linear6);fill-rule:nonzero;"/>
                </g>
                <g id="Path_41" transform="matrix(1,0,0,1,-1257.16,-1560.51)">
                    <path d="M1641.12,1820.05C1638.35,1827.28 1641.06,1822.83 1640.61,1824.29C1639.63,1832.23 1631.53,1809.54 1631.53,1809.54C1631.53,1809.54 1623.18,1744.59 1622.56,1729.74C1621.94,1714.9 1628.83,1696.91 1631.53,1692.32C1634.24,1687.74 1644.21,1680.88 1644.21,1680.88C1644.21,1680.88 1659.46,1664.99 1652.57,1668.82C1645.67,1672.64 1676.07,1648.09 1676.07,1648.09C1676.07,1648.09 1683.03,1644.47 1691.57,1640.19C1693.34,1639.68 1695.18,1639.53 1697,1639.74C1698.04,1640.03 1699.23,1636.41 1701.72,1635.22C1710.26,1631.12 1717.43,1628.06 1713.94,1631.1C1706.1,1637.9 1712.26,1637.27 1712.26,1637.27C1712.26,1637.27 1729.86,1625.73 1728.03,1630.15C1726.2,1634.58 1731.74,1632.32 1731.74,1632.32L1737.31,1630.15C1737.31,1630.15 1737.72,1627.75 1737.91,1630.07C1738.1,1632.38 1751.96,1625.5 1749.99,1628.3C1748.02,1631.1 1756.79,1632.32 1756.79,1632.32L1765.45,1630.15L1773.5,1630.15L1775.35,1632.32L1785.25,1632.32C1785.25,1632.32 1797.13,1636.82 1791.75,1635.41C1786.37,1634 1785.25,1637.27 1785.25,1637.27L1798.24,1639.74C1797.2,1640.78 1796.06,1641.71 1794.84,1642.52C1793.53,1643.24 1802.73,1641.52 1807.83,1642.52C1810.69,1642.99 1813.31,1644.4 1815.26,1646.54C1817.2,1648.68 1822.36,1654.08 1821.44,1653.66C1820.52,1653.24 1814.02,1653.66 1814.02,1653.66L1826.39,1658.61L1826.39,1661.7L1834.43,1664.48C1834.43,1664.48 1839.29,1671.47 1836.6,1670.36C1833.9,1669.25 1832.42,1671.6 1834.43,1672.53C1836.44,1673.45 1849.47,1672.84 1844.64,1674.07C1839.81,1675.3 1847.42,1684.05 1847.42,1687.37C1847.42,1690.7 1841.24,1681.8 1844.64,1687.37C1848.04,1692.94 1859.44,1702.87 1861.03,1709.64C1862.62,1716.41 1860.51,1718.66 1861.03,1726.03C1861.72,1736.23 1861.72,1746.46 1861.03,1756.65C1860.2,1767.76 1858.77,1763.66 1857.69,1770.47C1857.02,1774.9 1856.69,1779.38 1856.7,1783.87C1856.71,1788.35 1853.75,1792.85 1855.02,1799.18C1856.28,1805.52 1853.38,1806.99 1850.52,1814.8C1847.66,1822.61 1841.24,1830.26 1841.24,1830.26C1841.24,1830.26 1838.4,1827.48 1839.81,1820.87C1839.23,1817.23 1838.24,1811.37 1836.97,1804.46C1836.73,1803.11 1835.79,1802.39 1836.31,1801.11C1836.82,1799.83 1835.44,1796.4 1835.09,1794.62C1834.12,1789.77 1832.87,1783.88 1831.49,1777.89C1830.77,1774.8 1830.47,1772.41 1829.06,1771.33C1827.65,1770.25 1827.77,1763.14 1827.09,1760.78C1823.16,1747.02 1818.26,1734.38 1812.78,1728.5C1807.12,1722.43 1799.56,1723.45 1786.61,1723.03C1776.61,1723.59 1763.48,1718.67 1758.66,1718.33C1752.3,1717.87 1745.34,1720.47 1736.7,1720.47C1723.09,1720.47 1724.04,1722.21 1717.52,1722.32C1712.04,1722.42 1702.09,1721.24 1692.14,1722.32C1681.44,1723.48 1670.87,1727.14 1668.34,1729.74C1667.54,1730.61 1666.81,1731.54 1666.16,1732.53C1665.5,1733.6 1665.03,1734.78 1664.78,1736.02C1664.14,1737.17 1663.85,1736.43 1663.09,1737.91C1659.93,1744.52 1657.22,1751.33 1654.97,1758.3C1654.28,1760.33 1653.99,1763.86 1652.02,1765.97C1651.6,1767.3 1651.89,1767.95 1651.28,1770.01C1647.05,1784.22 1643.19,1801.12 1641.81,1811.88C1641.54,1813.92 1643.89,1812.82 1641.12,1820.05Z" style="fill:url(#_Linear7);fill-rule:nonzero;"/>
                </g>
                <g id="Path_40" transform="matrix(1,0,0,1,-1255.61,-1341.16)">
                    <path d="M1623.61,1815.19C1623.61,1815.19 1625.52,1834.93 1653.59,1855.84C1660.72,1861.15 1710.89,1893.78 1714.29,1893.36C1719.01,1892.77 1742.34,1890.12 1757.59,1883.96C1790.41,1870.69 1826.04,1846.44 1828.2,1836.68C1829.79,1829.56 1821.16,1811.98 1815.54,1803.99C1815.05,1803.29 1815.27,1803.22 1814.58,1802.58C1810.8,1797.48 1803.98,1799.11 1802.62,1798.88C1801.25,1798.64 1801.3,1798.29 1801.67,1799.94C1803.91,1803.01 1805.68,1809.28 1802.62,1821.21C1799.55,1833.13 1733.84,1858.76 1720.13,1855.84C1706.43,1852.91 1678.14,1832.46 1663.28,1814.08C1657.32,1806.83 1655.42,1797.02 1658.27,1788.06L1660.55,1782.75C1660.55,1782.75 1658.64,1781.36 1653.59,1781.36C1648.54,1781.36 1642.87,1781.93 1639.8,1785.16C1636.73,1788.39 1623.61,1815.19 1623.61,1815.19Z" style="fill:rgb(21,22,28);fill-rule:nonzero;"/>
                </g>
                <g id="Path_44" transform="matrix(1,0,0,1,-1260.69,-1453.28)">
                    <path d="M1634.3,1706.75C1637.89,1708.97 1637.26,1713.23 1634.3,1713.79C1631.34,1714.35 1627.54,1708.3 1624.87,1710.69C1623.17,1712.21 1623.62,1722.42 1623.74,1728.43C1623.78,1730.72 1622.33,1725.76 1622.33,1725.76C1622.33,1725.76 1619.31,1719.03 1620.22,1708.58C1621.14,1698.13 1630.71,1704.53 1634.3,1706.75Z" style="fill:rgb(51,33,25);fill-opacity:0.1;fill-rule:nonzero;"/>
                </g>
                <g id="Path_45" transform="matrix(0.999848,-0.0174524,0.0174524,0.999848,589.419,258.808)">
                    <path d="M2.1,3.4C-0.965,5.3 -0.424,8.936 2.1,9.418C4.624,9.9 7.879,4.724 10.166,6.77C11.613,8.07 11.231,16.793 11.129,21.932C11.092,23.889 12.329,19.646 12.329,19.646C12.329,19.646 14.919,13.9 14.137,4.965C13.355,-3.97 5.172,1.505 2.1,3.4Z" style="fill:rgb(57,40,33);fill-opacity:0.15;fill-rule:nonzero;"/>
                </g>
                <g id="Path_46" transform="matrix(0.996195,-0.0871557,0.0871557,0.996195,391.15,212.23)">
                    <path d="M3.841,21.265C7.091,16.242 11.041,5.036 20.885,2.514C30.729,-0.008 46.385,-0.669 52.885,0.696C59.385,2.061 69.385,-0.328 70.885,2.514C71.334,3.506 71.567,4.582 71.567,5.671C71.567,9.429 68.799,12.658 65.085,13.233C58.403,14.614 32.495,12.992 26.785,13.196C21.075,13.4 15.317,22.06 9.068,25.924C2.819,29.788 0,31.311 0,28.947C0,26.583 0.591,26.288 3.841,21.265Z" style="fill:rgb(29,27,27);fill-rule:nonzero;"/>
                </g>
                <g id="Path_47" transform="matrix(0.999848,-0.0174524,0.0174524,0.999848,502.176,209.872)">
                    <path d="M64.47,19.892C63.206,16.707 57.733,4.71 48.527,2.352C39.321,-0.006 24.672,-0.625 18.592,0.651C12.512,1.927 3.16,-0.307 1.756,2.352C0.352,5.011 -1.368,11.727 1.756,13.832C4.88,15.937 28.225,11.212 42.681,13.816C57.137,16.42 53.735,20.635 59.581,24.249C65.427,27.863 68.063,29.288 68.063,27.077C68.063,24.866 65.735,23.077 64.47,19.892Z" style="fill:rgb(29,27,27);fill-rule:nonzero;"/>
                </g>
                <g id="Path_48" transform="matrix(0.999391,0.0348995,-0.0348995,0.999391,410.69,237.165)">
                    <path d="M43.548,12.84C40.867,10.949 33.9,-0.2 19.968,0C6.036,0.2 0,11.154 0,13.372C0,15.59 7.334,23.756 21.271,23.555C26.149,23.484 27.347,22.269 32.164,20.611C37.869,17.812 43.924,15.2 43.548,12.84Z" style="fill:white;fill-rule:nonzero;"/>
                </g>
                <g id="Path_61" transform="matrix(1,0,0,1,-1284.75,-1049.43)">
                    <path d="M1657.25,1896.96C1653.52,1898.61 1649.46,1902.76 1645.09,1908.51L1639.86,1883.59L1639.86,1858.5C1639.86,1858.5 1629.72,1884.85 1623.17,1893C1616.7,1901.06 1604.88,1904.83 1604.88,1908.52C1604.88,1915.44 1631.02,1899.8 1631.02,1899.8L1639.86,1916.09C1634.54,1924.64 1629.75,1933.52 1625.53,1942.66C1621.3,1951.81 1645.35,1940.86 1659.26,1918.67C1659.4,1918.47 1674.92,1913.96 1675.35,1913.05C1686.61,1888.97 1670.58,1846.37 1670.58,1846.37C1670.58,1846.37 1670.92,1890.93 1657.25,1896.96Z" style="fill:rgb(26,27,36);fill-opacity:0.54;fill-rule:nonzero;"/>
                </g>
                <g id="Path_50" transform="matrix(0.994522,-0.104528,0.104528,0.994522,457.247,259.725)">
                    <path d="M21.28,0C18.47,-0.165 7.069,21.152 4.591,32.554C4.279,33.991 4.114,39.62 3.622,41.774C2.634,46.1 1.517,49.908 0.639,53.673C-0.121,56.908 -0.412,59.689 0.955,60.973L9.221,64.2L12.699,65.194C12.699,65.194 18.854,67.753 22.271,67.914C30.161,68.286 35.822,62.132 30.533,61.636C27.391,61.256 24.271,60.707 21.188,59.99C20.205,59.776 19.627,59.151 17.788,58.68C16.789,58.67 15.794,58.566 14.815,58.368L9.715,56.184C8.226,54.365 11.779,48.499 15.332,40.154C18.885,31.809 13.351,34.042 19.132,21.813C24.913,9.584 24.089,0.167 21.28,0Z" style="fill:rgb(156,104,82);fill-rule:nonzero;"/>
                </g>
                <g transform="matrix(0.999848,0.0174524,-0.0174524,0.999848,440.418,344.359)">
                    <path d="M38.597,39.015C34.853,39.015 30.97,38.152 27.055,36.449C23.633,34.96 20.18,32.83 16.79,30.117C11.221,25.659 5.886,19.646 2.153,13.617C0.819,11.464 -0.211,9.447 -0.826,7.786C-1.582,5.742 -1.7,4.319 -1.197,3.309C0.003,0.897 3.393,0.564 6.878,0.564C9.426,0.564 12.593,0.777 16.26,1.023C21.362,1.365 27.713,1.791 34.827,1.791C35.933,1.791 37.043,1.781 38.126,1.761C46.014,1.612 54.567,0.678 62.113,-0.146C68.764,-0.873 74.509,-1.5 78.715,-1.5C82.555,-1.5 84.67,-0.986 85.786,0.218C86.363,0.841 86.634,1.626 86.568,2.489C86.399,4.722 83.944,8.399 81.914,11.091C78.945,15.028 75.053,19.262 70.953,23.013C65.97,27.573 60.918,31.256 55.936,33.962C49.948,37.214 44.269,38.913 39.059,39.011C38.906,39.014 38.751,39.015 38.597,39.015Z" style="fill:white;fill-rule:nonzero;"/>
                </g>
                <g transform="matrix(0.999848,0.0174524,-0.0174524,0.999848,440.418,344.359)">
                    <path d="M78.715,-0C69.77,-0 52.917,2.982 38.154,3.26C37.025,3.282 35.917,3.291 34.827,3.291C22.62,3.291 12.925,2.064 6.878,2.064C3.201,2.064 0.872,2.518 0.146,3.977C-1.868,8.023 17.303,37.515 38.597,37.515C38.741,37.515 38.886,37.514 39.03,37.511C60.497,37.106 84.645,8.015 85.073,2.375C85.207,0.614 82.777,-0 78.715,-0M78.715,-3C83.014,-3 85.458,-2.343 86.886,-0.802C87.742,0.122 88.161,1.331 88.064,2.603C87.975,3.775 87.47,5.155 86.474,6.946C85.643,8.439 84.512,10.137 83.112,11.994C80.089,16.002 76.131,20.308 71.966,24.119C66.893,28.761 61.741,32.516 56.652,35.28C50.45,38.648 44.54,40.408 39.087,40.511C38.924,40.514 38.759,40.515 38.597,40.515C34.646,40.515 30.561,39.61 26.456,37.824C22.913,36.283 19.346,34.084 15.853,31.288C10.156,26.728 4.698,20.575 0.877,14.407C-0.508,12.17 -1.584,10.06 -2.233,8.306C-3.142,5.847 -3.24,4.047 -2.54,2.641C-1.79,1.134 -0.382,0.101 1.647,-0.429C2.971,-0.775 4.633,-0.936 6.878,-0.936C9.477,-0.936 12.667,-0.722 16.361,-0.474C21.441,-0.133 27.763,0.291 34.827,0.291C35.923,0.291 37.024,0.281 38.098,0.261C45.918,0.113 54.435,-0.817 61.95,-1.637C68.645,-2.369 74.427,-3 78.715,-3Z" style="fill:rgb(187,151,122);fill-rule:nonzero;"/>
                </g>
                <g id="Ellipse_8" transform="matrix(1,0,0,1,422.337,240.338)">
                    <circle cx="9.707" cy="9.707" r="9.707" style="fill:rgb(46,36,36);"/>
                </g>
                <g id="Path_53" transform="matrix(0.99863,0.052336,-0.052336,0.99863,443.992,355.027)">
                    <path d="M2.753,6.243C2.753,6.243 75.124,-0.661 74.542,0.052C73.854,1.031 73.062,1.933 72.181,2.742C71.462,3.221 2.071,4.08 0.4,2.8C-1.271,1.52 2.753,6.243 2.753,6.243Z" style="fill:url(#_Radial8);fill-rule:nonzero;"/>
                </g>
                <g id="Path_54" transform="matrix(1,0,0,1,-1258.71,-1435.87)">
                    <path d="M1629.24,1718.62C1629.91,1716.64 1632.9,1717.04 1634.32,1719.62C1635.73,1722.2 1631.32,1712.29 1630.57,1710.46C1629.82,1708.62 1625.5,1711.3 1623.81,1715.57C1622.12,1719.85 1624.07,1722.37 1624.57,1725.95C1625.07,1729.53 1631.89,1731.32 1632.65,1735.7C1633.41,1740.08 1636.13,1745.34 1635.55,1741.81C1635.18,1739.51 1634.23,1734.61 1636.2,1735.8C1636.2,1735.71 1641.48,1735.2 1637.23,1734.12C1637.56,1733.59 1637.85,1733.04 1638.1,1732.47C1639.42,1729.85 1641.47,1722.39 1639.47,1726.32C1637.23,1730.7 1631.64,1727.57 1631.64,1727.57L1630.48,1724.67C1630.48,1724.67 1631.87,1724.17 1630.05,1722.6C1629,1721.57 1628.67,1719.99 1629.24,1718.62Z" style="fill:rgb(84,54,41);fill-opacity:0.09;fill-rule:nonzero;"/>
                </g>
                <g id="Path_55" transform="matrix(0.99863,-0.052336,0.052336,0.99863,581.981,286.614)">
                    <path d="M10.68,9.053C11.337,8.1 9.523,7.208 7.738,7.7C7.489,7.664 6.844,8.517 6.17,9.747C5.178,11.555 6.805,4.747 8.359,3.347C8.075,2.234 9.693,1.137 9.918,0.587C10.667,-1.246 14.987,1.424 16.676,5.701C18.365,9.978 16.544,13.479 14.883,16.211C13.222,18.943 8.1,21.193 7.343,25.576C6.586,29.959 4.358,35.476 4.931,31.941C5.303,29.641 6.253,24.741 4.28,25.926C4.28,25.835 -0.995,25.326 3.254,24.244C2.693,23.737 2.224,23.136 1.868,22.469C0.548,19.846 -1.059,13.355 0.947,17.282C1.753,18.86 2.613,19.103 4.63,19.252C6.107,19.452 8.846,17.696 8.846,17.696L9.146,15.367C9.146,15.367 8.978,14.154 10.8,12.59C12.622,11.026 10.68,9.053 10.68,9.053Z" style="fill:rgb(84,54,41);fill-opacity:0.09;fill-rule:nonzero;"/>
                </g>
                <g transform="matrix(5.55112e-17,-1,1,5.55112e-17,4.9515,948.921)">
                    <circle cx="471.985" cy="471.985" r="460.985" style="fill:none;stroke:rgb(19,19,19);stroke-width:22px;stroke-linecap:round;stroke-linejoin:bevel;"/>
                </g>
                <g id="Path_60" transform="matrix(1,0,0,1,-1237.72,-1310.99)">
                    <path d="M1636.83,1834.98C1631.27,1849.21 1660.28,1933.75 1697.46,1937.67C1711.82,1939.18 1734.57,1915.09 1776.33,1886.02C1790.52,1877.78 1838.98,1867.06 1852.77,1858.87C1853.65,1858.37 1854.42,1857.69 1855.04,1856.89C1868.98,1836.48 1812.29,1809.39 1812.29,1809.39C1812.29,1809.39 1809.87,1800.48 1810.43,1802.94C1811,1805.41 1808.2,1810.9 1807.36,1811.55C1806.53,1812.19 1801.82,1817.71 1797.53,1820.79C1789.84,1827.26 1773.43,1837.26 1769.53,1839.31C1729.94,1861.89 1707.66,1862.05 1695.47,1861.82C1680.13,1860.03 1642.4,1820.75 1636.83,1834.98Z" style="fill:rgb(19,20,29);fill-opacity:0.32;fill-rule:nonzero;"/>
                </g>
                <g id="Ellipse_5" transform="matrix(1,0,0,1,453.884,555.803)">
                    <circle cx="6.067" cy="6.067" r="6.067" style="fill:rgb(20,20,20);"/>
                </g>
                <g id="Ellipse_6" transform="matrix(1,0,0,1,453.884,577.643)">
                    <circle cx="6.067" cy="6.067" r="6.067" style="fill:rgb(20,20,20);"/>
                </g>
                <g id="Ellipse_7" transform="matrix(1,0,0,1,453.884,599.483)">
                    <circle cx="6.067" cy="6.067" r="6.067" style="fill:rgb(20,20,20);"/>
                </g>
                <g id="Path_68" transform="matrix(1,0,0,1,-1231.56,-1460.28)">
                    <path d="M1685.14,1711.63C1685.14,1711.63 1679.19,1700.67 1668.86,1698.73C1666.31,1698.14 1663.7,1697.86 1661.08,1697.87C1658.61,1697.99 1656.17,1698.39 1653.8,1699.08C1652.84,1699.54 1651.84,1699.91 1650.36,1700.71C1639.72,1706.43 1640.48,1711.09 1640.48,1711.09C1640.48,1711.09 1641.44,1715.1 1643.16,1711.9C1647.4,1704.03 1655.7,1697.44 1664.59,1699.08C1674.39,1700.88 1685.14,1711.63 1685.14,1711.63Z" style="fill:url(#_Linear9);fill-rule:nonzero;"/>
                </g>
                <g id="Path_69" transform="matrix(-0.996,0.087,-0.087,-0.996,554.764,259.474)">
                    <path d="M43.214,10.777C44.282,11.286 35.651,23.777 20.998,23.556C6.345,23.335 0,13.034 0,10.816C0,8.598 7.673,-0.222 22.326,0C27.455,0.079 28.716,1.3 33.784,2.964C39.788,5.777 42.146,10.268 43.214,10.777Z" style="fill:white;fill-rule:nonzero;"/>
                </g>
                <g id="Path_70" transform="matrix(0.99863,-0.052336,0.052336,0.99863,507.697,238.821)">
                    <path d="M0,13.764C0,13.764 6.26,2.8 17.114,0.859C19.803,0.274 22.548,-0.012 25.3,0.006C27.887,0.117 30.454,0.522 32.95,1.213C33.956,1.672 35.011,2.041 36.571,2.845C47.751,8.568 48.101,14.245 48.101,14.245C48.101,14.245 45.944,17.234 44.137,14.037C39.685,6.167 30.956,-0.431 21.612,1.213C11.306,3.014 0,13.764 0,13.764Z" style="fill:url(#_Linear10);fill-rule:nonzero;"/>
                </g>
                <g id="Ellipse_9" transform="matrix(1,0,0,1,521.83,240.338)">
                    <circle cx="9.707" cy="9.707" r="9.707" style="fill:rgb(46,36,36);"/>
                </g>
            </g>
        </g>
    </g>
    <defs>
        <linearGradient id="_Linear1" x1="0" y1="0" x2="1" y2="0" gradientUnits="userSpaceOnUse" gradientTransform="matrix(50.5289,1998.05,-1998.05,50.5289,1574.53,-2.27374e-13)"><stop offset="0" style="stop-color:rgb(170,126,97);stop-opacity:1"/><stop offset="1" style="stop-color:rgb(210,181,162);stop-opacity:1"/></linearGradient>
        <linearGradient id="_Linear2" x1="0" y1="0" x2="1" y2="0" gradientUnits="userSpaceOnUse" gradientTransform="matrix(5.12551e-15,83.706,-83.706,5.12551e-15,16.2004,0)"><stop offset="0" style="stop-color:rgb(239,176,139);stop-opacity:1"/><stop offset="1" style="stop-color:rgb(198,156,123);stop-opacity:1"/></linearGradient>
        <linearGradient id="_Linear3" x1="0" y1="0" x2="1" y2="0" gradientUnits="userSpaceOnUse" gradientTransform="matrix(1.0924e-13,1784.02,-1784.02,1.0924e-13,1635.67,0)"><stop offset="0" style="stop-color:rgb(217,153,115);stop-opacity:1"/><stop offset="1" style="stop-color:rgb(172,120,87);stop-opacity:1"/></linearGradient>
        <linearGradient id="_Linear4" x1="0" y1="0" x2="1" y2="0" gradientUnits="userSpaceOnUse" gradientTransform="matrix(29.1805,68.0473,-68.0473,29.1805,23.9205,44.2461)"><stop offset="0" style="stop-color:rgb(27,28,35);stop-opacity:1"/><stop offset="1" style="stop-color:rgb(25,25,25);stop-opacity:1"/></linearGradient>
        <linearGradient id="_Linear5" x1="0" y1="0" x2="1" y2="0" gradientUnits="userSpaceOnUse" gradientTransform="matrix(-158.08,-223.436,223.436,-158.08,1812.39,1886.26)"><stop offset="0" style="stop-color:rgb(211,174,141);stop-opacity:1"/><stop offset="1" style="stop-color:rgb(149,88,55);stop-opacity:1"/></linearGradient>
        <linearGradient id="_Linear6" x1="0" y1="0" x2="1" y2="0" gradientUnits="userSpaceOnUse" gradientTransform="matrix(82.821,105.869,-105.869,82.821,1713.42,1773.98)"><stop offset="0" style="stop-color:rgb(176,127,89);stop-opacity:1"/><stop offset="1" style="stop-color:rgb(255,234,208);stop-opacity:1"/></linearGradient>
        <linearGradient id="_Linear7" x1="0" y1="0" x2="1" y2="0" gradientUnits="userSpaceOnUse" gradientTransform="matrix(-129.838,-139.018,139.018,-129.838,1880.28,1830.26)"><stop offset="0" style="stop-color:rgb(55,55,55);stop-opacity:1"/><stop offset="1" style="stop-color:black;stop-opacity:1"/></linearGradient>
        <radialGradient id="_Radial8" cx="0" cy="0" r="1" gradientUnits="userSpaceOnUse" gradientTransform="matrix(18.9511,17.1742,-233.62,257.062,37.2696,3.12167)"><stop offset="0" style="stop-color:white;stop-opacity:1"/><stop offset="1" style="stop-color:rgb(220,220,220);stop-opacity:1"/></radialGradient>
        <linearGradient id="_Linear9" x1="0" y1="0" x2="1" y2="0" gradientUnits="userSpaceOnUse" gradientTransform="matrix(1686.17,11.5258,-11.5258,1686.17,2.27374e-13,1699.25)"><stop offset="0" style="stop-color:rgb(168,115,82);stop-opacity:1"/><stop offset="1" style="stop-color:rgb(173,121,88);stop-opacity:1"/></linearGradient>
        <linearGradient id="_Linear10" x1="0" y1="0" x2="1" y2="0" gradientUnits="userSpaceOnUse" gradientTransform="matrix(-29.6783,1.0701,-1.0701,-29.6783,41.9922,7.17023)"><stop offset="0" style="stop-color:rgb(185,139,106);stop-opacity:1"/><stop offset="1" style="stop-color:rgb(181,133,100);stop-opacity:1"/></linearGradient>
    </defs>
</svg>
