<svg xmlns="http://www.w3.org/2000/svg" xmlns:xlink="http://www.w3.org/1999/xlink" width="1037" height="1023" viewBox="0 0 1037 1023">
  <defs>
    <linearGradient id="linear-gradient" x1="0.5" x2="1" y2="0.901" gradientUnits="objectBoundingBox">
      <stop offset="0" stop-color="#aa7e61"/>
      <stop offset="1" stop-color="#d2b5a2"/>
    </linearGradient>
    <linearGradient id="linear-gradient-2" x1="0.5" x2="0.5" y2="1" gradientUnits="objectBoundingBox">
      <stop offset="0" stop-color="#efb08b"/>
      <stop offset="1" stop-color="#c69c7b"/>
    </linearGradient>
    <linearGradient id="linear-gradient-3" x1="0.5" x2="0.5" y2="1" gradientUnits="objectBoundingBox">
      <stop offset="0" stop-color="#d99973"/>
      <stop offset="1" stop-color="#ac7857"/>
    </linearGradient>
    <linearGradient id="linear-gradient-4" x1="0.382" y1="0.435" x2="0.848" y2="1.104" gradientUnits="objectBoundingBox">
      <stop offset="0" stop-color="#1b1c23"/>
      <stop offset="1" stop-color="#191919"/>
    </linearGradient>
    <linearGradient id="linear-gradient-5" x1="0.908" y1="0.761" x2="0.122" y2="0.024" gradientUnits="objectBoundingBox">
      <stop offset="0" stop-color="#d3ae8d"/>
      <stop offset="1" stop-color="#955837"/>
    </linearGradient>
    <linearGradient id="linear-gradient-6" x1="0.485" y1="0.1" x2="1" y2="0.823" gradientUnits="objectBoundingBox">
      <stop offset="0" stop-color="#b07f59"/>
      <stop offset="1" stop-color="#ffead0"/>
    </linearGradient>
    <linearGradient id="linear-gradient-7" x1="1.078" y1="1" x2="0.535" y2="0.314" gradientUnits="objectBoundingBox">
      <stop offset="0" stop-color="#373737"/>
      <stop offset="1"/>
    </linearGradient>
    <radialGradient id="radial-gradient" cx="0.5" cy="0.5" r="4.1" gradientTransform="matrix(0.062, 0.671, -0.064, 0.841, 0.501, -0.256)" gradientUnits="objectBoundingBox">
      <stop offset="0" stop-color="#fff"/>
      <stop offset="1" stop-color="#dcdcdc"/>
    </radialGradient>
    <linearGradient id="linear-gradient-8" y1="0.09" x2="1.023" y2="0.845" gradientUnits="objectBoundingBox">
      <stop offset="0" stop-color="#a87352"/>
      <stop offset="1" stop-color="#ad7958"/>
    </linearGradient>
    <linearGradient id="linear-gradient-9" x1="0.873" y1="0.462" x2="0.256" y2="0.531" gradientUnits="objectBoundingBox">
      <stop offset="0" stop-color="#b98b6a"/>
      <stop offset="1" stop-color="#b58564"/>
    </linearGradient>
    <clipPath id="clip-Sahil_Profile_Picture_SVG">
      <rect width="1037" height="1023"/>
    </clipPath>
  </defs>
  <g id="Sahil_Profile_Picture_SVG" data-name="Sahil Profile Picture SVG" clip-path="url(#clip-Sahil_Profile_Picture_SVG)">
    <g id="Group_2" data-name="Group 2" transform="translate(32.705 28.705)">
      <rect id="Image_1" data-name="Image 1" width="984" height="984" transform="translate(-15.705 -15.705)" fill="none"/>
      <ellipse id="bg" cx="463.887" cy="463.887" rx="463.887" ry="463.887" transform="translate(-148.645 646.731) rotate(-60)" fill="#191919"/>
      <path id="Path_29" data-name="Path 29" d="M1572.182,1941.559" transform="translate(-1328.977 -1112.613)" fill="none" stroke="#707070" stroke-width="1"/>
      <path id="Path_31" data-name="Path 31" d="M1538.595,1905.407a72.874,72.874,0,0,1-5.973,16.6c-4.143,7.952-9.516,15.7-8.5,18.836,1.973,6.086,71.991,68.206,75.115,67.383s26.143-64.679,25.814-70.435-7.031-17.515-28.616-24.669c-10.253-3.4-24.839-5.525-37-6.085C1547.542,1906.49,1538.595,1905.407,1538.595,1905.407Z" transform="translate(-1384.684 -1162.556)" fill="url(#linear-gradient)"/>
      <path id="Path_32" data-name="Path 32" d="M1745.731,1937.507s90.741-17.113,97.833-17.787c4.014-.383,4.107,6.858,6.241,17.787,1.52,7.781,5.7,19.4,5.06,21.841-1.466,5.635-16.111,20.112-37.859,34.7s-43.472,29.664-51.531,30.5S1745.731,1937.507,1745.731,1937.507Z" transform="translate(-1072.126 -1151.897)" fill="#ca9a72"/>
      <path id="Path_30" data-name="Path 30" d="M1628.426,2114.906c-.2.377,3.5-4.624,2.7-3.844-2.808,8.871-9.673,1.162-17.915-4.642a180.051,180.051,0,0,0-14.553-13.272c-1.809-.59-2.34-.669-4.745-1.34-15.532-4.352-24.76-5.22-40.59-6.13-17.453-1-13.968,1.375-14.814,4.232s-4.021-2.433-5.5-15.448c-2.779-21.689,8.315-56.769,17.126-92.557,9.11-37,18.436-71.927,18.436-71.927s1.771-16.339,24.937-29.975,52.009-26.984,65.426-26.537,47.039-17.611,70.023-27.244,9.4-4.505,21.911-11.288,11.424-21.911,21.052-29.214,15.4-3.439,17.47-2.792-6.708,10.351-2.064,22.834,6.058,11.6,21.51,25.017,40.3,28.641,40.3,28.641,30.789-6.031,52.369-15.824,33.946-23.35,33.946-23.35,2.187-16.093-2.078-19.807,10.71,1.879,10.71,1.879.7.01,6.062,9.308,9.873,27.874,9.873,27.874,109.222,54.92,120.488,65.828,24.932,9.895,38.447,30.758,7.667,15.8,19.29,53.928c5.591,18.338,7.367,35.529,16.705,55.107,9.494,19.906,3.472,27.369,6.627,34.98,1.474,15.1.81,12.651.963,12.6-1.806,9.163,14.124,20.7,6.671,23.085-6.6,2.114-13.659,3.67-16.641,2.336-6.8-3.04,11.024-3.96-6.644,0s-5.323-6.679-7.681,0-87.106,26.016-88.58,21.6,5.487,7.084-2.883-5.238c-7.658-11.272-16.192,21.48-18.375,31.748-.037.147.069-3.9,0-3.378-.808,6.152,9.631,71.729,9.631,71.729s-24.88,29.641-110.2,32.3-155.215-3.147-230.244-22.4-77.063-48.805-77.063-48.805S1633.907,2104.44,1628.426,2114.906Z" transform="translate(-1385.489 -1341.208)" fill="#1e1f27"/>
      <path id="Path_35" data-name="Path 35" d="M1688.633,1856.9c3.263-9.771,50.014-13.885,54.968-7.714s.29,51.424-2.678,57.6-19,29.933-25.78,30.961-23.836-24.772-26.51-30.961S1685.37,1866.666,1688.633,1856.9Z" transform="translate(-1177.226 -1223.92)" fill="#191a20"/>
      <path id="Path_36" data-name="Path 36" d="M1692.04,1855.353c1.883-.869,16.252-3.3,31.056-4.4,11.986-.887,24.477-.519,27.2,0,5.769,1.1,5.221,21.16,1.649,25.008s-59.36.549-62.382-3.573S1688.467,1857,1692.04,1855.353Z" transform="translate(-1183.058 -1228.076)" fill="#17181d"/>
      <path id="Path_43" data-name="Path 43" d="M5.068,20.776s6.9-14.36,11.967-18.161,10.277-4.083,13.8,3.378,0,28.72,0,28.72-2.62,10.557-4.569,15.972-.217,14.186-5.306,20.359S0,83.706,0,83.706Z" transform="translate(576.991 250.018) rotate(3)" fill="url(#linear-gradient-2)"/>
      <path id="Path_62" data-name="Path 62" d="M0,0V68.586" transform="translate(459.951 547.31)" fill="none" stroke="#16171d" stroke-width="8"/>
      <path id="Path_42" data-name="Path 42" d="M1646.8,1721.091s-6.9-14.36-11.967-18.161-10.276-4.083-13.8,3.379,0,28.719,0,28.719,2.62,10.557,4.569,15.972.217,14.187,5.306,20.359,20.956,12.661,20.956,12.661Z" transform="translate(-1261.513 -1456.787)" fill="url(#linear-gradient-3)"/>
      <path id="Path_37" data-name="Path 37" d="M1572.345,2011.3l31.4-109.525,4.623-13.793V1853.1s.857,29.849,7.564,34.88,19.266-14.758,19.266-14.758l-17.44,40.246v16.1l-9.391-16.1Z" transform="translate(-1328.742 -1238.81)" fill="#1b1c23"/>
      <path id="Path_39" data-name="Path 39" d="M0,97.723,30.507,10.929S37.571-.4,39.5.011L35.211,9.241l3,3.325L62.619,14.2s-15.76-.83-23.121,2.306l-7.775,7.247L39.5,22.392c-.575.562-7.136,2.481-7.775,3.657-1.395,2.44,5.008,4.586,5.008,4.586l6.3,3.219L30.507,30.636,1.73,95.243l10.545,2.48s-1.236,5.921-3.485,3.341-3.036-3.341-3.036-3.341Z" transform="translate(585.213 720.302) rotate(-42)" fill="url(#linear-gradient-4)"/>
      <path id="face_mask" data-name="face mask" d="M1745.8,1958.717l-64.676-6.142-20.234-41.913-16.685-35.321s-4.527-6.225-8.124-28.649-6.685-31.331-6.264-61.045,6.692-35.377,7.76-48.632,4.49-16.89,7.911-23.3-.6-22.992,10.476-34.635,16.249-7.911,34.208-11.973,17.714-9.319,34.421-11.118,19.189,2.335,32.711,4.49,10.625,1.118,22.021,5.131,16.561,5.771,24.8,13.469,7.269,4.917,9.193,13.255c1.469,3.482,2.843,12.357,4.276,16.036a82.254,82.254,0,0,1,3,9.715s6.232,15.182,8.31,30a199.2,199.2,0,0,1,1.454,30.712s1.355,18.246,0,32.157a87.712,87.712,0,0,1-5.42,23.486,86.921,86.921,0,0,1-1.807,26.015c-3.164,13.818-10.847,29.259-10.847,29.259l-20.957,29.266L1772.74,1943.6Z" transform="translate(-1246.801 -1520.659)" fill="url(#linear-gradient-5)"/>
      <path id="Path_33" data-name="Path 33" d="M1637.73,1830.614l12.213-37.576s-1.187-39.062,3.3-33.076,26.511,31.214,36.559,37.842,37.37,10.642,46.607,8.124,36.774-17.959,44.47-33.138,3.867,57.824,3.867,57.824,23.759,11.471,2.974,30.26-86.112,44.894-86.112,44.894-40.519-38.933-56.489-57.722S1637.73,1830.614,1637.73,1830.614Z" transform="translate(-1238.744 -1372.579)" fill="url(#linear-gradient-6)"/>
      <path id="Path_41" data-name="Path 41" d="M1641.119,1820.054c-2.766,7.23-.055,2.78-.509,4.237-.976,7.935-9.077-14.749-9.077-14.749s-8.354-64.956-8.973-79.8,6.267-32.835,8.973-37.421,12.681-11.444,12.681-11.444,15.244-15.888,8.351-12.062,23.507-20.723,23.507-20.723,6.961-3.625,15.5-7.9a13.909,13.909,0,0,1,5.431-.452c1.041.293,2.226-3.332,4.713-4.524,8.545-4.094,15.719-7.156,12.22-4.119-7.836,6.8-1.681,6.169-1.681,6.169s17.606-11.537,15.775-7.114,3.711,2.165,3.711,2.165l5.568-2.165s.41-2.4.6-.087,14.054-4.569,12.083-1.769,6.8,4.021,6.8,4.021l8.661-2.165h8.042l1.855,2.165h9.9s11.877,4.507,6.5,3.093-6.5,1.856-6.5,1.856l12.991,2.474a22.147,22.147,0,0,1-3.4,2.783c-1.31.719,7.887-1.005,12.991,0a12.8,12.8,0,0,1,7.423,4.021s7.105,7.533,6.186,7.114-7.423,0-7.423,0l12.372,4.949v3.093l8.041,2.784s4.863,6.989,2.165,5.876-4.175,1.237-2.165,2.165,15.034.318,10.207,1.547,2.784,9.975,2.784,13.3-6.186-5.568-2.784,0,14.805,15.5,16.393,22.269-.524,9.021,0,16.393a228.26,228.26,0,0,1,0,30.62c-.835,11.109-2.258,7.011-3.34,13.815a89.041,89.041,0,0,0-.99,13.4s-2.952,8.981-1.685,15.316-1.64,7.8-4.5,15.614-9.279,15.465-9.279,15.465-2.833-2.782-1.43-9.394c-.581-3.638-1.564-9.5-2.834-16.41-.248-1.353-1.179-2.071-.667-3.352s-.867-4.71-1.221-6.488c-.967-4.852-2.216-10.742-3.6-16.732-.716-3.093-1.018-5.476-2.426-6.559s-1.294-8.191-1.969-10.554c-3.929-13.754-8.83-26.4-14.308-32.273-5.662-6.073-13.225-5.051-26.177-5.474-10,.563-23.125-4.357-27.945-4.7-6.356-.458-13.321,2.139-21.963,2.139-13.609,0-12.658,1.743-19.177,1.856-5.477.095-15.426-1.082-25.381,0-10.7,1.161-21.269,4.819-23.8,7.42a20.847,20.847,0,0,0-2.18,2.782,10.635,10.635,0,0,0-1.38,3.491c-.641,1.154-.932.411-1.689,1.894a163.6,163.6,0,0,0-8.119,20.387c-.689,2.036-.984,5.56-2.955,7.671-.415,1.328-.127,1.978-.74,4.041-4.23,14.215-8.087,31.11-9.468,41.873C1641.54,1813.922,1643.886,1812.824,1641.119,1820.054Z" transform="translate(-1257.157 -1560.508)" fill="url(#linear-gradient-7)"/>
      <path id="Path_40" data-name="Path 40" d="M1623.609,1815.188s1.915,19.741,29.979,40.648c7.127,5.312,57.3,37.947,60.706,37.521,4.716-.59,28.048-3.233,43.3-9.4,32.821-13.269,68.442-37.521,70.611-47.279,1.582-7.116-7.045-24.7-12.665-32.686-.487-.707-.271-.769-.962-1.41-3.782-5.1-10.6-3.472-11.963-3.707s-1.32-.582-.948,1.061c2.243,3.075,4.018,9.345.948,21.272s-68.778,37.556-82.483,34.627-41.994-23.372-56.848-41.754a27.724,27.724,0,0,1-5.014-26.017l2.277-5.313s-1.908-1.391-6.958-1.391-10.715.57-13.789,3.8S1623.609,1815.188,1623.609,1815.188Z" transform="translate(-1255.606 -1341.162)" fill="#15161c"/>
      <path id="Path_44" data-name="Path 44" d="M1634.3,1706.752c3.589,2.218,2.956,6.476,0,7.039s-6.758-5.49-9.433-3.1c-1.693,1.515-1.246,11.725-1.126,17.739.043,2.289-1.408-2.675-1.408-2.675s-3.027-6.722-2.112-17.175S1630.707,1704.534,1634.3,1706.752Z" transform="translate(-1260.689 -1453.279)" fill="#332119" opacity="0.1"/>
      <path id="Path_45" data-name="Path 45" d="M2.1,3.4C-.965,5.3-.424,8.936,2.1,9.418S7.879,4.724,10.166,6.77c1.447,1.3,1.065,10.023.963,15.162-.037,1.957,1.2-2.286,1.2-2.286S14.919,13.9,14.137,4.965,5.172,1.505,2.1,3.4Z" transform="translate(589.419 258.808) rotate(-1)" fill="#392821" opacity="0.15"/>
      <path id="Path_46" data-name="Path 46" d="M3.841,21.265c3.25-5.023,7.2-16.229,17.044-18.751s25.5-3.183,32-1.818,16.5-1.024,18,1.818a7.652,7.652,0,0,1-5.8,10.719c-6.682,1.381-32.59-.241-38.3-.037S15.317,22.06,9.068,25.924,0,31.311,0,28.947.591,26.288,3.841,21.265Z" transform="translate(391.15 212.23) rotate(-5)" fill="#1d1b1b"/>
      <path id="Path_47" data-name="Path 47" d="M64.47,19.892C63.206,16.707,57.733,4.71,48.527,2.352S24.672-.625,18.592.651,3.16-.307,1.756,2.352s-3.124,9.375,0,11.48,26.469-2.62,40.925-.016,11.054,6.819,16.9,10.433,8.482,5.039,8.482,2.828S65.735,23.077,64.47,19.892Z" transform="translate(502.176 209.872) rotate(-1)" fill="#1d1b1b"/>
      <path id="Path_48" data-name="Path 48" d="M43.548,12.84C40.867,10.949,33.9-.2,19.968,0S0,11.154,0,13.372,7.334,23.756,21.271,23.555c4.878-.071,6.076-1.286,10.893-2.944C37.869,17.812,43.924,15.2,43.548,12.84Z" transform="translate(410.69 237.165) rotate(2)" fill="#fff"/>
      <path id="Path_61" data-name="Path 61" d="M1657.25,1896.958c-3.732,1.647-7.791,5.8-12.162,11.555l-5.225-24.926V1858.5s-10.146,26.35-16.689,34.5c-6.472,8.058-18.295,11.832-18.295,15.517,0,6.926,26.136-8.722,26.136-8.722l8.848,16.292a244.7,244.7,0,0,0-14.336,26.574s19.818-1.8,33.734-23.987c.141-.2,15.655-4.714,16.084-5.629,11.263-24.072-4.765-66.672-4.765-66.672S1670.921,1890.926,1657.25,1896.958Z" transform="translate(-1284.753 -1049.431)" fill="#1a1b24" opacity="0.54"/>
      <path id="Path_50" data-name="Path 50" d="M21.28,0C18.47-.165,7.069,21.152,4.591,32.554c-.312,1.437-.477,7.066-.969,9.22C2.634,46.1,1.517,49.908.639,53.673c-.76,3.235-1.051,6.016.316,7.3L9.221,64.2l3.478.994s6.155,2.559,9.572,2.72c7.89.372,13.551-5.782,8.262-6.278a87.807,87.807,0,0,1-9.345-1.646c-.983-.214-1.561-.839-3.4-1.31a15.811,15.811,0,0,1-2.973-.312l-5.1-2.184c-1.489-1.819,2.064-7.685,5.617-16.03s-1.981-6.112,3.8-18.341S24.089.167,21.28,0Z" transform="translate(457.247 259.725) rotate(-6)" fill="#9c6852"/>
      <g id="Path_52" data-name="Path 52" transform="translate(440.418 344.359) rotate(1)" fill="#fff" stroke-linecap="round" stroke-linejoin="round">
        <path d="M 38.59732818603516 39.01536178588867 C 34.85321807861328 39.01536178588867 30.96969223022461 38.15183639526367 27.05461692810059 36.44876480102539 C 23.6330680847168 34.96037673950195 20.17954254150391 32.83000183105469 16.78999137878418 30.11682510375977 C 11.22139263153076 25.65943717956543 5.886254787445068 19.64557647705078 2.152567386627197 13.617262840271 C 0.8188672661781311 11.46390056610107 -0.210995227098465 9.447413444519043 -0.8256826996803284 7.785800457000732 C -1.58188271522522 5.741688251495361 -1.699970245361328 4.319150447845459 -1.197320222854614 3.30901312828064 C 0.00282977893948555 0.8968256115913391 3.393117189407349 0.5643005967140198 6.878017425537109 0.5643005967140198 C 9.426229476928711 0.5643005967140198 12.59286689758301 0.7768006324768066 16.2595043182373 1.022838115692139 C 21.36214256286621 1.365250587463379 27.7125301361084 1.791388154029846 34.82684326171875 1.791388154029846 C 35.93266677856445 1.791388154029846 37.04260635375977 1.781025648117065 38.1258544921875 1.7605881690979 C 46.01354217529297 1.611813068389893 54.56663131713867 0.6777756214141846 62.11286544799805 -0.14631187915802 C 68.76430511474609 -0.8726868629455566 74.50868225097656 -1.499999403953552 78.71535491943359 -1.499999403953552 C 82.55507659912109 -1.499999403953552 84.66963195800781 -0.9861618876457214 85.785888671875 0.2181506156921387 C 86.3634033203125 0.8412006497383118 86.63401794433594 1.626400589942932 86.5684814453125 2.488850593566895 C 86.39889526367188 4.722063064575195 83.94393157958984 8.399150848388672 81.91431427001953 11.09057521820068 C 78.94524383544922 15.02781295776367 75.05258941650391 19.26188850402832 70.95344543457031 23.01283836364746 C 65.97038269042969 27.57260131835938 60.91785430908203 31.25632476806641 55.93621826171875 33.96167373657227 C 49.94757843017578 37.21390151977539 44.26918029785156 38.91273880004883 39.05873107910156 39.01102447509766 C 38.90585327148438 39.01390075683594 38.75061798095703 39.01536178588867 38.59732818603516 39.01536178588867 Z" stroke="none"/>
        <path d="M 78.71535491943359 -3.814697265625e-06 C 69.77030944824219 -3.814697265625e-06 52.91734313964844 2.981864929199219 38.15414047241211 3.260322570800781 C 37.02477264404297 3.281623840332031 35.91693878173828 3.291379928588867 34.82685470581055 3.291379928588867 C 22.61966323852539 3.291379928588867 12.92503356933594 2.064117431640625 6.877998352050781 2.064296722412109 C 3.201408386230469 2.064403533935547 0.8715286254882813 2.5181884765625 0.145599365234375 3.977251052856445 C -1.867607116699219 8.023046493530273 17.3028564453125 37.51535797119141 38.59732055664063 37.51535797119141 C 38.74125289916992 37.51535797119141 38.88631820678711 37.51399612426758 39.03044128417969 37.51128005981445 C 60.49658203125 37.10639190673828 84.64453887939453 8.014678955078125 85.07278442382813 2.375194549560547 C 85.20659637451172 0.6142349243164063 82.77666473388672 -3.814697265625e-06 78.71535491943359 -3.814697265625e-06 M 78.71535491943359 -3.000007629394531 C 83.01412963867188 -3.000007629394531 85.45767974853516 -2.342521667480469 86.88599395751953 -0.8015480041503906 C 87.74235534667969 0.1223487854003906 88.16075134277344 1.331264495849609 88.06415557861328 2.602508544921875 C 87.97512817382813 3.775035858154297 87.46968078613281 5.155237197875977 86.47354125976563 6.945907592773438 C 85.64316558837891 8.438579559326172 84.51216888427734 10.13690757751465 83.11195373535156 11.99370765686035 C 80.08927154541016 16.00205039978027 76.13091278076172 20.30839347839355 71.96605682373047 24.11944961547852 C 66.89312744140625 28.76145172119141 61.74075317382813 32.51634979248047 56.65206909179688 35.27983474731445 C 50.45001220703125 38.64794921875 44.54026794433594 40.40789413452148 39.08701324462891 40.51074981689453 C 38.92422485351563 40.51380920410156 38.75949859619141 40.51536560058594 38.59731292724609 40.51536560058594 C 34.64609909057617 40.51536560058594 30.5612678527832 39.60995101928711 26.456298828125 37.82427978515625 C 22.91324234008789 36.28303527832031 19.34567260742188 34.08389282226563 15.85268402099609 31.28792190551758 C 10.15586853027344 26.7279224395752 4.697601318359375 20.57512283325195 0.877410888671875 14.40717887878418 C -0.5082015991210938 12.17000770568848 -1.583602905273438 10.06035041809082 -2.232505798339844 8.306280136108398 C -3.142189025878906 5.847221374511719 -3.239990234375 4.046964645385742 -2.540260314941406 2.640766143798828 C -1.790458679199219 1.133735656738281 -0.381561279296875 0.1008796691894531 1.647239685058594 -0.4289779663085938 C 2.970710754394531 -0.7746200561523438 4.632797241210938 -0.9356346130371094 6.877899169921875 -0.9357070922851563 C 9.476753234863281 -0.9357795715332031 12.66713714599609 -0.7216796875 16.36131286621094 -0.4737777709960938 C 21.44126892089844 -0.1328773498535156 27.7634391784668 0.2913780212402344 34.82685470581055 0.2913780212402344 C 35.92322540283203 0.2913780212402344 37.02365493774414 0.2811088562011719 38.09756851196289 0.2608489990234375 C 45.91778182983398 0.1133499145507813 54.43524169921875 -0.8167915344238281 61.95004272460938 -1.637451171875 C 68.64502716064453 -2.368576049804688 74.42702484130859 -3.000007629394531 78.71535491943359 -3.000007629394531 Z" stroke="none" fill="#bb977a"/>
      </g>
      <ellipse id="Ellipse_8" data-name="Ellipse 8" cx="9.707" cy="9.707" rx="9.707" ry="9.707" transform="translate(422.337 240.338)" fill="#2e2424"/>
      <path id="Path_53" data-name="Path 53" d="M2.753,6.243S75.124-.661,74.542.052a16.627,16.627,0,0,1-2.361,2.69C71.462,3.221,2.071,4.08.4,2.8S2.753,6.243,2.753,6.243Z" transform="translate(443.992 355.027) rotate(3)" fill="url(#radial-gradient)"/>
      <path id="Path_54" data-name="Path 54" d="M1629.237,1718.622c.669-1.986,3.665-1.583,5.081,1s-3-7.331-3.748-9.164-5.068.837-6.759,5.114.26,6.8.761,10.38,7.32,5.364,8.08,9.747,3.477,9.645,2.9,6.113c-.373-2.3-1.322-7.2.651-6.014,0-.092,5.274-.6,1.026-1.682a12.037,12.037,0,0,0,.867-1.645c1.321-2.623,3.377-10.079,1.372-6.153-2.239,4.383-7.831,1.25-7.831,1.25l-1.159-2.9s1.394-.5-.426-2.065A3.637,3.637,0,0,1,1629.237,1718.622Z" transform="translate(-1258.709 -1435.872)" fill="#543629" opacity="0.09"/>
      <path id="Path_55" data-name="Path 55" d="M10.68,9.053C11.337,8.1,9.523,7.208,7.738,7.7c-.249-.036-.894.817-1.568,2.047-.992,1.808.635-5,2.189-6.4C8.075,2.234,9.693,1.137,9.918.587c.749-1.833,5.069.837,6.758,5.114s-.132,7.778-1.793,10.51S8.1,21.193,7.343,25.576s-2.985,9.9-2.412,6.365c.372-2.3,1.322-7.2-.651-6.015,0-.091-5.275-.6-1.026-1.682a6.57,6.57,0,0,1-1.386-1.775c-1.32-2.623-2.927-9.114-.921-5.187.806,1.578,1.666,1.821,3.683,1.97,1.477.2,4.216-1.556,4.216-1.556l.3-2.329S8.978,14.154,10.8,12.59,10.68,9.053,10.68,9.053Z" transform="translate(581.981 286.614) rotate(-3)" fill="#543629" opacity="0.09"/>
      <g id="bg-2" data-name="bg" transform="translate(-167.807 649.695) rotate(-60)" fill="none" stroke="#131313" stroke-linecap="round" stroke-linejoin="bevel" stroke-width="22">
        <circle cx="471.985" cy="471.985" r="471.985" stroke="none"/>
        <circle cx="471.985" cy="471.985" r="460.985" fill="none"/>
      </g>
      <path id="Path_60" data-name="Path 60" d="M1636.834,1834.981c-5.567,14.227,23.442,98.772,60.623,102.686,14.366,1.512,37.116-22.578,78.871-51.652,14.187-8.24,62.653-18.957,76.44-27.147a7.626,7.626,0,0,0,2.269-1.982c13.944-20.41-42.745-47.5-42.745-47.5s-2.426-8.91-1.857-6.445-2.237,7.962-3.071,8.607-5.545,6.166-9.838,9.242c-7.69,6.472-24.094,16.468-28,18.52-39.59,22.579-61.862,22.74-74.052,22.51C1680.135,1860.033,1642.4,1820.753,1636.834,1834.981Z" transform="translate(-1237.719 -1310.989)" fill="#13141d" opacity="0.32"/>
      <ellipse id="Ellipse_5" data-name="Ellipse 5" cx="6.067" cy="6.067" rx="6.067" ry="6.067" transform="translate(453.884 555.803)" fill="#141414"/>
      <ellipse id="Ellipse_6" data-name="Ellipse 6" cx="6.067" cy="6.067" rx="6.067" ry="6.067" transform="translate(453.884 577.643)" fill="#141414"/>
      <ellipse id="Ellipse_7" data-name="Ellipse 7" cx="6.067" cy="6.067" rx="6.067" ry="6.067" transform="translate(453.884 599.483)" fill="#141414"/>
      <path id="Path_65" data-name="Path 65" d="M1689.234,1742.857Z" transform="translate(-1161.982 -1396.093)" fill="#d18787"/>
      <path id="Path_66" data-name="Path 66" d="M.146,3.977C2.172-.1,16.688,3.665,38.154,3.26S85.5-3.264,85.073,2.375,60.5,37.106,39.03,37.511-1.881,8.05.146,3.977Z" transform="translate(440.418 344.359) rotate(1)" fill="none" opacity="0.21"/>
      <path id="Path_68" data-name="Path 68" d="M1685.139,1711.63s-5.953-10.959-16.275-12.905a33.932,33.932,0,0,0-7.789-.852,31.082,31.082,0,0,0-7.276,1.207c-.956.459-1.961.828-3.444,1.633-10.633,5.722-9.88,10.372-9.88,10.372s.964,4.014,2.683.817c4.238-7.868,12.54-14.466,21.427-12.822C1674.386,1700.879,1685.139,1711.63,1685.139,1711.63Z" transform="translate(-1231.561 -1460.281)" fill="url(#linear-gradient-8)"/>
      <path id="Path_69" data-name="Path 69" d="M43.214,10.777c1.068.509-7.563,13-22.216,12.779S0,13.034,0,10.816,7.673-.222,22.326,0c5.129.079,6.39,1.3,11.458,2.964C39.788,5.777,42.146,10.268,43.214,10.777Z" transform="matrix(-0.996, 0.087, -0.087, -0.996, 554.764, 259.474)" fill="#fff"/>
      <path id="Path_70" data-name="Path 70" d="M0,13.764S6.26,2.8,17.114.859A37.4,37.4,0,0,1,25.3.006a34.174,34.174,0,0,1,7.65,1.207c1.006.459,2.061.828,3.621,1.632,11.18,5.723,11.53,11.4,11.53,11.4s-2.157,2.989-3.964-.208C39.685,6.167,30.956-.431,21.612,1.213,11.306,3.014,0,13.764,0,13.764Z" transform="translate(507.697 238.821) rotate(-3)" fill="url(#linear-gradient-9)"/>
      <ellipse id="Ellipse_9" data-name="Ellipse 9" cx="9.707" cy="9.707" rx="9.707" ry="9.707" transform="translate(521.83 240.338)" fill="#2e2424"/>
    </g>
  </g>
</svg>
