<?xml version="1.0" encoding="UTF-8" standalone="no"?>
<!DOCTYPE svg PUBLIC "-//W3C//DTD SVG 1.1//EN" "http://www.w3.org/Graphics/SVG/1.1/DTD/svg11.dtd">
<svg width="100%" height="100%" viewBox="0 0 48 24" version="1.1" xmlns="http://www.w3.org/2000/svg" xmlns:xlink="http://www.w3.org/1999/xlink" xml:space="preserve" xmlns:serif="http://www.serif.com/" style="fill-rule:evenodd;clip-rule:evenodd;stroke-linejoin:round;stroke-miterlimit:2;">
    <g transform="matrix(1,0,0,1,-7969,-3551.4)">
        <g transform="matrix(1.05272,0,0,1.05272,7421.73,3138.53)">
            <g transform="matrix(1.89984,0,0,1.89984,519.865,380.792)">
                <path d="M4,13C5.1,13 6,12.1 6,11C6,9.9 5.1,9 4,9C2.9,9 2,9.9 2,11C2,12.1 2.9,13 4,13ZM5.13,14.1C4.76,14.04 4.39,14 4,14C3.01,14 2.07,14.21 1.22,14.58C0.48,14.9 0,15.62 0,16.43L0,18L4.5,18L4.5,16.39C4.5,15.56 4.73,14.78 5.13,14.1ZM20,13C21.1,13 22,12.1 22,11C22,9.9 21.1,9 20,9C18.9,9 18,9.9 18,11C18,12.1 18.9,13 20,13ZM24,16.43C24,15.62 23.52,14.9 22.78,14.58C21.93,14.21 20.99,14 20,14C19.61,14 19.24,14.04 18.87,14.1C19.27,14.78 19.5,15.56 19.5,16.39L19.5,18L24,18L24,16.43ZM16.24,13.65C15.07,13.13 13.63,12.75 12,12.75C10.37,12.75 8.93,13.14 7.76,13.65C6.68,14.13 6,15.21 6,16.39L6,18L18,18L18,16.39C18,15.21 17.32,14.13 16.24,13.65ZM8.07,16C8.16,15.77 8.2,15.61 8.98,15.31C9.95,14.93 10.97,14.75 12,14.75C13.03,14.75 14.05,14.93 15.02,15.31C15.79,15.61 15.83,15.77 15.93,16L8.07,16ZM12,8C12.55,8 13,8.45 13,9C13,9.55 12.55,10 12,10C11.45,10 11,9.55 11,9C11,8.45 11.45,8 12,8M12,6C10.34,6 9,7.34 9,9C9,10.66 10.34,12 12,12C13.66,12 15,10.66 15,9C15,7.34 13.66,6 12,6Z" style="fill:rgb(249,172,78);fill-rule:nonzero;"/>
            </g>
        </g>
    </g>
</svg>
