<svg xmlns="http://www.w3.org/2000/svg" xmlns:xlink="http://www.w3.org/1999/xlink" width="38" height="48" viewBox="0 0 38 48">
  <defs>
    <clipPath id="clip-Learn">
      <rect width="38" height="48"/>
    </clipPath>
  </defs>
  <g id="Learn" clip-path="url(#clip-Learn)">
    <g id="Group_13" data-name="Group 13">
      <g id="owl-svgrepo-com" transform="translate(-51.248 0.448)">
        <g id="Group_3" data-name="Group 3" transform="translate(51.204 0)">
          <g id="Group_2" data-name="Group 2" transform="translate(0 0)">
            <path id="Path_11" data-name="Path 11" d="M164.491,335.165a2.814,2.814,0,0,0,2.213-1.119.779.779,0,0,0-.184-1.081.79.79,0,0,0-1.094.169,1.178,1.178,0,0,1-1.868,0,.785.785,0,0,0-1.279.911A2.814,2.814,0,0,0,164.491,335.165Z" transform="translate(-151.928 -302.187)" fill="#c2c2c2"/>
            <path id="Path_12" data-name="Path 12" d="M124.967,119.474a5.5,5.5,0,1,0,5.5,5.5A5.5,5.5,0,0,0,124.967,119.474Zm0,9.422a3.926,3.926,0,1,1,3.926-3.926A3.93,3.93,0,0,1,124.967,128.9Z" transform="translate(-113.189 -108.481)" fill="#c2c2c2"/>
            <path id="Path_13" data-name="Path 13" d="M233.692,333.133a1.178,1.178,0,0,1-1.868,0,.785.785,0,0,0-1.279.911,2.747,2.747,0,0,0,4.425,0,.779.779,0,0,0-.184-1.081A.79.79,0,0,0,233.692,333.133Z" transform="translate(-213.913 -302.186)" fill="#c2c2c2"/>
            <path id="Path_14" data-name="Path 14" d="M53.567,19.519a.785.785,0,0,0,1.555.223,20.52,20.52,0,0,0-.859-9.882A20.751,20.751,0,0,1,52.81,2.384L57.8,6.125a.784.784,0,0,0,.718.117,40.5,40.5,0,0,1,11.53-1.53,40.514,40.514,0,0,1,11.53,1.53.784.784,0,0,0,.718-.117l4.989-3.741a20.7,20.7,0,0,1-1.478,7.532,20.621,20.621,0,0,0-.833,9.826.785.785,0,0,0,.777.674.8.8,0,0,0,.112-.008.786.786,0,0,0,.666-.889,19.558,19.558,0,0,1,.71-8.96c.068-.135,1.654-3.379,1.654-9.773A.785.785,0,0,0,87.637.158L81.675,4.629A42.967,42.967,0,0,0,70.048,3.142,42.973,42.973,0,0,0,58.422,4.629L52.46.158A.785.785,0,0,0,51.2.786c0,6.394,1.585,9.638,1.626,9.714A19.264,19.264,0,0,1,53.567,19.519Z" transform="translate(-51.204 0)" fill="#c2c2c2"/>
            <path id="Path_15" data-name="Path 15" d="M220.839,239.064a.784.784,0,0,0-1.089.218l-2.488,3.731-2.488-3.731a.785.785,0,0,0-1.307.872l3.141,4.711a.785.785,0,0,0,1.307,0l3.141-4.711A.786.786,0,0,0,220.839,239.064Z" transform="translate(-198.418 -216.947)" fill="#c2c2c2"/>
            <path id="Path_16" data-name="Path 16" d="M163.707,162.141a1.57,1.57,0,1,0,1.57,1.57A1.572,1.572,0,0,0,163.707,162.141Z" transform="translate(-151.93 -147.222)" fill="#c2c2c2"/>
            <path id="Path_17" data-name="Path 17" d="M269.1,376.713a.779.779,0,0,0-.184-1.081.791.791,0,0,0-1.094.169,1.178,1.178,0,0,1-1.868,0,.785.785,0,0,0-1.279.911,2.747,2.747,0,0,0,4.425,0Z" transform="translate(-244.906 -340.928)" fill="#c2c2c2"/>
            <path id="Path_18" data-name="Path 18" d="M284.064,124.97a5.5,5.5,0,1,0-5.5,5.5A5.5,5.5,0,0,0,284.064,124.97Zm-5.5,3.926a3.926,3.926,0,1,1,3.926-3.926A3.93,3.93,0,0,1,278.567,128.9Z" transform="translate(-252.656 -108.481)" fill="#c2c2c2"/>
            <path id="Path_19" data-name="Path 19" d="M91.973,238.949a7.272,7.272,0,0,0-4.271,3.232c-2,3.063-2.352,7.575-1.059,13.411a.785.785,0,1,0,1.533-.339c-1.175-5.3-.894-9.51.813-12.17a6.238,6.238,0,0,1,2.612-2.35c1.6,6.033.6,13-2.508,17.212a6.661,6.661,0,0,1-4.489,2.937,3.114,3.114,0,0,0-5.387.037H72.06a3.114,3.114,0,0,0-5.386-.038,6.712,6.712,0,0,1-4.5-2.953c-3.11-4.212-4.1-11.174-2.5-17.194a6.223,6.223,0,0,1,2.583,2.306c1.731,2.658,2.02,6.881.835,12.213a.785.785,0,1,0,1.533.341c1.3-5.836.943-10.348-1.052-13.411a7.267,7.267,0,0,0-4.271-3.233.786.786,0,0,0-.9.539c-2.042,6.636-1.007,14.6,2.516,19.371a8.184,8.184,0,0,0,5.307,3.564c0,.023-.006.043-.006.066a1.572,1.572,0,0,0,1.57,1.57h3.141a1.572,1.572,0,0,0,1.57-1.57h6.282a1.572,1.572,0,0,0,1.57,1.57H83.49a1.572,1.572,0,0,0,1.57-1.57c0-.021-.006-.041-.006-.061a8.144,8.144,0,0,0,5.3-3.549c3.525-4.768,4.562-12.741,2.523-19.39A.784.784,0,0,0,91.973,238.949Zm-24.187,23.54a1.571,1.571,0,0,1,3.142,0Zm12.563,0a1.571,1.571,0,0,1,3.142,0Z" transform="translate(-56.794 -216.948)" fill="#c2c2c2"/>
            <path id="Path_20" data-name="Path 20" d="M190.091,377.832a2.813,2.813,0,0,0,2.213-1.119.779.779,0,0,0-.184-1.081.791.791,0,0,0-1.094.169,1.178,1.178,0,0,1-1.868,0,.785.785,0,0,0-1.279.911A2.814,2.814,0,0,0,190.091,377.832Z" transform="translate(-175.173 -340.928)" fill="#c2c2c2"/>
            <path id="Path_21" data-name="Path 21" d="M317.307,162.141a1.57,1.57,0,1,0,1.57,1.57A1.572,1.572,0,0,0,317.307,162.141Z" transform="translate(-291.396 -147.222)" fill="#c2c2c2"/>
            <path id="Path_22" data-name="Path 22" d="M232.758,420.5a2.814,2.814,0,0,0,2.213-1.119.779.779,0,0,0-.184-1.081.79.79,0,0,0-1.094.169,1.178,1.178,0,0,1-1.868,0,.785.785,0,0,0-1.279.911A2.814,2.814,0,0,0,232.758,420.5Z" transform="translate(-213.914 -379.669)" fill="#c2c2c2"/>
            <path id="Path_23" data-name="Path 23" d="M303.237,334.046a.779.779,0,0,0-.184-1.081.791.791,0,0,0-1.094.169,1.178,1.178,0,0,1-1.868,0,.785.785,0,0,0-1.279.911,2.747,2.747,0,0,0,4.425,0Z" transform="translate(-275.898 -302.187)" fill="#c2c2c2"/>
          </g>
        </g>
      </g>
    </g>
  </g>
</svg>
