<?xml version="1.0" encoding="UTF-8" standalone="no"?>
<!DOCTYPE svg PUBLIC "-//W3C//DTD SVG 1.1//EN" "http://www.w3.org/Graphics/SVG/1.1/DTD/svg11.dtd">
<svg width="100%" height="100%" viewBox="0 0 24 24" version="1.1" xmlns="http://www.w3.org/2000/svg" xmlns:xlink="http://www.w3.org/1999/xlink" xml:space="preserve" xmlns:serif="http://www.serif.com/" style="fill-rule:evenodd;clip-rule:evenodd;stroke-linecap:round;stroke-linejoin:round;">
    <path d="M2,11L2,4.6C2,4.269 2.269,4 2.6,4L8.778,4C8.921,4 9.06,4.051 9.169,4.144L12.332,6.856C12.44,6.949 12.579,7 12.722,7L21.4,7C21.731,7 22,7.269 22,7.6L22,11M2,11L2,19.4C2,19.731 2.269,20 2.6,20L21.4,20C21.731,20 22,19.731 22,19.4L22,11M2,11L22,11" style="fill:none;fill-rule:nonzero;stroke:white;stroke-width:1.5px;"/>
</svg>
