<?xml version="1.0" encoding="UTF-8" standalone="no"?>
<!DOCTYPE svg PUBLIC "-//W3C//DTD SVG 1.1//EN" "http://www.w3.org/Graphics/SVG/1.1/DTD/svg11.dtd">
<svg width="100%" height="100%" viewBox="0 0 48 48" version="1.1" xmlns="http://www.w3.org/2000/svg" xmlns:xlink="http://www.w3.org/1999/xlink" xml:space="preserve" xmlns:serif="http://www.serif.com/" style="fill-rule:evenodd;clip-rule:evenodd;stroke-linejoin:round;stroke-miterlimit:2;">
    <g transform="matrix(1.2,0,0,1.2,-4.8,-4.8)">
        <path d="M21.2,29.35L34.2,21L21.2,12.65L21.2,29.35ZM13,38C12.2,38 11.5,37.7 10.9,37.1C10.3,36.5 10,35.8 10,35L10,7C10,6.2 10.3,5.5 10.9,4.9C11.5,4.3 12.2,4 13,4L41,4C41.8,4 42.5,4.3 43.1,4.9C43.7,5.5 44,6.2 44,7L44,35C44,35.8 43.7,36.5 43.1,37.1C42.5,37.7 41.8,38 41,38L13,38ZM13,35L41,35L41,7L13,7L13,35ZM7,44C6.2,44 5.5,43.7 4.9,43.1C4.3,42.5 4,41.8 4,41L4,10L7,10L7,41L38,41L38,44L7,44ZM13,7L13,35L13,7Z" style="fill:rgb(236,134,9);fill-rule:nonzero;"/>
    </g>
</svg>
