<?xml version="1.0" encoding="UTF-8" standalone="no"?>
<!DOCTYPE svg PUBLIC "-//W3C//DTD SVG 1.1//EN" "http://www.w3.org/Graphics/SVG/1.1/DTD/svg11.dtd">
<svg width="100%" height="100%" viewBox="0 0 24 24" version="1.1" xmlns="http://www.w3.org/2000/svg" xmlns:xlink="http://www.w3.org/1999/xlink" xml:space="preserve" xmlns:serif="http://www.serif.com/" style="fill-rule:evenodd;clip-rule:evenodd;stroke-linejoin:round;stroke-miterlimit:2;">
    <g transform="matrix(0.857143,0,0,0.857143,1.67143,1.28571)">
        <g transform="matrix(0.777778,0,0,0.777778,5.76667,-0.333333)">
            <path d="M21,3L21,12L17.206,8.207L15.064,10.35L13.65,8.936L15.792,6.793L12,3L21,3Z" style="fill:rgb(236,134,9);fill-rule:nonzero;"/>
        </g>
        <g transform="matrix(0.9,0,0,0.9,-0.7,3.2)">
            <path d="M21,8L21,20.993C21,20.995 21,20.998 21,21C21,21.546 20.553,21.996 20.007,22L3.993,22C3.449,22 3.001,21.552 3,21.008L3,2.992C3,2.455 3.449,2 4.002,2L14.997,2L21,8ZM19,9L14,9L14,4L5,4L5,20L19,20L19,9ZM8,7L11,7L11,9L8,9L8,7ZM8,11L16,11L16,13L8,13L8,11ZM8,15L16,15L16,17L8,17L8,15Z" style="fill:rgb(236,134,9);fill-rule:nonzero;"/>
        </g>
    </g>
</svg>
