<?xml version="1.0" encoding="UTF-8" standalone="no"?>
<!DOCTYPE svg PUBLIC "-//W3C//DTD SVG 1.1//EN" "http://www.w3.org/Graphics/SVG/1.1/DTD/svg11.dtd">
<svg width="100%" height="100%" viewBox="0 0 24 24" version="1.1" xmlns="http://www.w3.org/2000/svg" xmlns:xlink="http://www.w3.org/1999/xlink" xml:space="preserve" xmlns:serif="http://www.serif.com/" style="fill-rule:evenodd;clip-rule:evenodd;stroke-linecap:round;stroke-linejoin:round;">
    <path d="M7,18L14,18" style="fill:none;fill-rule:nonzero;stroke:white;stroke-width:1.5px;"/>
    <path d="M7,14L8,14" style="fill:none;fill-rule:nonzero;stroke:white;stroke-width:1.5px;"/>
    <path d="M7,10L10,10" style="fill:none;fill-rule:nonzero;stroke:white;stroke-width:1.5px;"/>
    <path d="M7,2L16.5,2L21,6.5L21,19" style="fill:none;fill-rule:nonzero;stroke:white;stroke-width:1.5px;"/>
    <path d="M3,20.5L3,6.5C3,5.672 3.672,5 4.5,5L14.252,5C14.411,5 14.563,5.063 14.676,5.176L17.824,8.324C17.937,8.437 18,8.589 18,8.749L18,20.5C18,21.328 17.328,22 16.5,22L4.5,22C3.672,22 3,21.328 3,20.5Z" style="fill:none;fill-rule:nonzero;stroke:white;stroke-width:1.5px;"/>
    <path d="M14,8.4L14,5.354C14,5.158 14.158,5 14.354,5C14.447,5 14.537,5.037 14.604,5.104L17.896,8.396C17.963,8.463 18,8.553 18,8.646C18,8.842 17.842,9 17.646,9L14.6,9C14.269,9 14,8.731 14,8.4Z" style="fill:none;fill-rule:nonzero;stroke:white;stroke-width:1.5px;"/>
</svg>
